<?xml version="1.0" encoding="UTF-8" standalone="no"?>
<svg
   enable-background="new 229.913 219.502 16 15.408"
   viewBox="229.913 219.502 16 15.408"
   version="1.1"
   id="svg36"
   sodipodi:docname="Heart1.svg"
   inkscape:version="1.2.1 (9c6d41e410, 2022-07-14)"
   xmlns:inkscape="http://www.inkscape.org/namespaces/inkscape"
   xmlns:sodipodi="http://sodipodi.sourceforge.net/DTD/sodipodi-0.dtd"
   xmlns="http://www.w3.org/2000/svg"
   xmlns:svg="http://www.w3.org/2000/svg">
  <sodipodi:namedview
     id="namedview512"
     pagecolor="#505050"
     bordercolor="#eeeeee"
     borderopacity="1"
     inkscape:showpageshadow="0"
     inkscape:pageopacity="0"
     inkscape:pagecheckerboard="0"
     inkscape:deskcolor="#505050"
     showgrid="false"
     inkscape:zoom="40.247446"
     inkscape:cx="2.2982825"
     inkscape:cy="10.186982"
     inkscape:window-width="1920"
     inkscape:window-height="1057"
     inkscape:window-x="1912"
     inkscape:window-y="-8"
     inkscape:window-maximized="1"
     inkscape:current-layer="svg36" />
  <defs
     id="defs14">
    <linearGradient
       id="b"
       x2="0"
       y1="459.74"
       y2="445.91"
       gradientUnits="userSpaceOnUse">
      <stop
         stop-color="#ff66b2"
         offset="0"
         id="stop2" />
      <stop
         stop-color="#ff99cc"
         offset=".5"
         id="stop4" />
      <stop
         stop-color="#ffb3d9"
         offset="1"
         id="stop6" />
    </linearGradient>
    <linearGradient
       id="a"
       x2="0"
       y1="459.74"
       y2="448.07"
       gradientUnits="userSpaceOnUse">
      <stop
         stop-color="#ff66b2"
         offset="0"
         id="stop9" />
      <stop
         stop-color="#ff99cc"
         offset="1"
         id="stop11" />
    </linearGradient>
  </defs>
  <g
     transform="translate(-134.07 -225.8)"
     id="g18">
    <path
       d="m368.433,445.913c-2.165,0-3.92,1.755-3.92,3.919 0,4.401 4.438,5.555 7.464,9.904 2.863-4.321 7.464-5.645 7.464-9.904 0-2.164-1.756-3.919-3.92-3.919-1.568,0-2.918.926-3.544,2.26-.626-1.334-1.975-2.26-3.544-2.26z"
       fill="url(#b)"
       stroke="#ff66b2"
       stroke-width="1.0056"
       id="path16"
       style="stroke:none" />
  </g>
  <g
     transform="translate(-134.07 -225.8)"
     opacity=".32"
     id="g22">
    <path
       d="m365.805,453.426c1.543,1.95 4.169,3.427 6.172,6.311 2.576-3.889 9.168-6.734 7.043-11.666-.301,2.726-3,4.479-5.584,5.271-1.735.532-5.124,1.333-7.631.084z"
       fill="url(#a)"
       id="path20" />
  </g>
  <g
     transform="translate(-134.07 -225.8)"
     id="g26">
    <path
       d="m368.036,447.644c-.645,0-1.22.3-1.593.768-.277.349-.442.79-.442,1.269 0,.45.09.835.246,1.181-.147-1.261.686-2.784 1.789-3.218z"
       fill="#fff"
       opacity="0.8"
       id="path24" />
  </g>
  <g
     transform="translate(-134.07 -225.8)"
     id="g30">
    <path
       d="m368.433,445.913c-2.165,0-3.92,1.755-3.92,3.919 0,4.401 4.438,5.555 7.464,9.904 2.863-4.321 7.464-5.645 7.464-9.904 0-2.164-1.756-3.919-3.92-3.919-1.568,0-2.918.926-3.544,2.26-.626-1.334-1.975-2.26-3.544-2.26z"
       fill="none"
       stroke="#ff66b2"
       stroke-width="1.0056"
       id="path28" />
  </g>
  <!-- Cute Star for Extra Detail -->
</svg>
