<?xml version="1.0" encoding="UTF-8" standalone="no"?>
<svg
   viewBox="0 0 201.50414 207.5403"
   version="1.1"
   id="svg85"
   sodipodi:docname="pink-35601.svg"
   inkscape:version="1.2.1 (9c6d41e410, 2022-07-14)"
   xmlns:inkscape="http://www.inkscape.org/namespaces/inkscape"
   xmlns:sodipodi="http://sodipodi.sourceforge.net/DTD/sodipodi-0.dtd"
   xmlns="http://www.w3.org/2000/svg"
   xmlns:svg="http://www.w3.org/2000/svg">
  <sodipodi:namedview
     id="namedview87"
     pagecolor="#505050"
     bordercolor="#eeeeee"
     borderopacity="1"
     inkscape:showpageshadow="0"
     inkscape:pageopacity="0"
     inkscape:pagecheckerboard="0"
     inkscape:deskcolor="#505050"
     showgrid="false"
     inkscape:zoom="2.9880108"
     inkscape:cx="79.149648"
     inkscape:cy="113.45341"
     inkscape:window-width="1920"
     inkscape:window-height="1057"
     inkscape:window-x="-8"
     inkscape:window-y="-8"
     inkscape:window-maximized="1"
     inkscape:current-layer="g83" />
  <defs
     id="defs7">
    <radialGradient
       id="a"
       cx="342.86"
       cy="172.36"
       r="193.09"
       gradientUnits="userSpaceOnUse"
       gradientTransform="matrix(2.0033469,0,0,2.0033469,-121.52753,-5.7229713)">
      <stop
         stop-color="#e50000"
         offset="0"
         id="stop2"
         style="stop-color:#ff0000;stop-opacity:1;" />
      <stop
         stop-color="#f55"
         stop-opacity="0"
         offset="1"
         id="stop4"
         style="stop-color:#ff3a9c;stop-opacity:0;" />
    </radialGradient>
  </defs>
  <g
     transform="matrix(.15791 0 0 .15791 16.376 41.416)"
     fill-rule="evenodd"
     id="g83"
     style="stroke-width:7.33329112;stroke-dasharray:none">
    <path
       id="path15"
       style="stroke-width:34.56399215;stroke-dasharray:none;fill:#ff99cc;fill-opacity:1;stroke:#ff66b2;stroke-opacity:1"
       d="M 451.34847 -161.18744 C 318.38526 -161.18744 210.59649 -65.011571 210.61849 53.617963 C 210.61604 62.404395 211.38854 71.020004 212.53562 79.530171 C 103.58413 100.07727 21.792735 186.29951 21.811871 289.62314 C 21.787242 378.04536 81.706218 453.93268 167.26656 486.87751 C 152.82866 514.4599 144.52706 545.11207 144.53308 577.56406 C 144.50003 696.19195 252.29986 792.38184 385.26307 792.38184 C 422.45597 792.38184 457.54159 784.63163 488.98611 771.19443 C 532.12713 807.64037 590.21612 830.14316 654.31713 830.14316 C 787.28034 830.14316 895.06912 733.95491 895.04712 615.32538 C 895.04899 608.60445 894.59692 601.98773 893.92158 595.42431 C 995.29101 570.10753 1069.7347 487.2689 1069.7164 388.74507 C 1069.7365 316.64236 1029.7795 252.99951 968.68974 214.03865 C 993.69034 180.17084 1008.3392 139.67802 1008.3311 96.091722 C 1008.3642 -22.536163 900.56432 -118.71369 767.60111 -118.71369 C 719.1236 -118.71369 674.08797 -105.8182 636.30846 -83.821876 C 592.14922 -131.0819 525.70291 -161.18744 451.34847 -161.18744 z " />
    <path
       d="M 880.14588,597.14419 C 800.34256,694.68114 755.13905,485.23723 637.26012,529.8057 519.38118,574.37415 624.04865,761.33249 499.67627,740.99852 375.30388,720.66454 534.08576,576.78618 436.5488,496.99087 339.01185,417.19556 229.4428,601.31315 184.86834,483.43342 140.29387,365.55369 344.28467,431.12804 364.62865,306.75625 384.97263,182.38448 170.72472,179.54974 250.52804,82.020802 330.33136,-15.508122 375.53488,193.92776 493.4138,149.35931 611.29274,104.79086 506.62528,-82.167487 630.99765,-61.833517 755.37004,-41.49954 596.58816,102.37883 694.12512,182.17413 c 97.53695,79.79531 207.106,-104.322291 251.68046,13.55745 44.57447,117.87973 -159.41633,52.30538 -179.76031,176.67715 -20.34398,124.37178 193.90393,127.20652 114.10061,224.73546 z"
       fill="url(#a)"
       id="path27"
       style="fill:url(#a);stroke-width:7.33329112;stroke-dasharray:none" />
    <path
       d="m 688.0655,339.5825 c 0.0193,73.00999 -54.93427,132.20669 -122.72854,132.20669 -67.79427,0 -122.74671,-59.1967 -122.72854,-132.20669 -0.0193,-73.00998 54.93427,-132.20668 122.72854,-132.20668 67.79427,0 122.74671,59.1967 122.72854,132.20668 z"
       fill="#ffd5d5"
       id="path29"
       style="stroke-width:7.33329112;stroke-dasharray:none;fill:#ffffff;fill-opacity:1" />
  </g>
</svg>
